<?xml version="1.0" encoding="iso-8859-1"?>
<!-- Uploaded to: SVG Repo, www.svgrepo.com, Generator: SVG Repo Mixer Tools -->
<svg fill="#000000" height="800px" width="800px" version="1.1" id="Layer_1" xmlns="http://www.w3.org/2000/svg" xmlns:xlink="http://www.w3.org/1999/xlink" 
	 viewBox="0 0 511.999 511.999" xml:space="preserve">
<g>
	<g>
		<path d="M379.208,265.33l-44.983-44.983c-9.559-9.559-16.501-21.03-20.511-33.542c30.075,0.453,54.477-23.878,54.477-53.639
			c0-28.751-22.732-52.287-51.166-53.593c2.065-3.819,3.239-8.186,3.239-12.823V27.052C320.265,12.135,308.129,0,293.214,0h-74.428
			c-14.917,0-27.052,12.135-27.052,27.052v39.697c0,8.709,4.142,16.466,10.554,21.417v72.992c0,22.358-8.707,43.378-24.516,59.188
			l-44.983,44.983c-19.509,19.508-27.464,48.252-20.761,75.017l35.58,142.065c4.362,17.422,19.954,29.588,37.913,29.588h140.956
			c17.96,0,33.55-12.168,37.914-29.588l35.58-142.065C406.672,313.581,398.717,284.837,379.208,265.33z M309.71,113.872
			c12.592-3.139,24.707,6.438,24.707,19.293c0,12.866-12.124,22.428-24.707,19.293V113.872z M225.508,33.774h60.984v26.252h-60.984
			V33.774z M367.207,332.139l-35.58,142.065c-0.592,2.368-2.711,4.02-5.151,4.02H185.521c-2.44,0-4.557-1.654-5.151-4.02
			l-35.58-142.065c-3.837-15.315,0.716-31.765,11.881-42.929l44.983-44.983c22.188-22.187,34.408-51.689,34.408-83.07V93.8h39.874
			c0,75.187-0.01,67.289,0.025,69.352c0.507,30.634,12.666,59.359,34.384,81.076l44.983,44.983
			C366.491,300.376,371.044,316.824,367.207,332.139z"/>
	</g>
</g>
<g>
	<g>
		<path d="M312.018,290.812H199.98c-18.951,0-34.366,15.417-34.366,34.366v57.46c0,18.95,15.417,34.366,34.366,34.366h112.038
			c18.951,0,34.366-15.417,34.366-34.366v-57.46C346.384,306.23,330.967,290.812,312.018,290.812z M312.61,382.639
			c0,0.326-0.266,0.592-0.592,0.592H199.98c-0.326,0-0.592-0.266-0.592-0.592v-57.46c0-0.327,0.266-0.592,0.592-0.592h112.038
			c0.326,0,0.592,0.266,0.592,0.592V382.639z"/>
	</g>
</g>
</svg>